<?xml version="1.0" encoding="utf-8"?>
<!-- Generator: Adobe Illustrator 18.1.1, SVG Export Plug-In . SVG Version: 6.00 Build 0)  -->
<svg version="1.1" id="Layer_1" xmlns="http://www.w3.org/2000/svg" xmlns:xlink="http://www.w3.org/1999/xlink" x="0px" y="0px"
	 viewBox="0 0 238.6 238.6" style="enable-background:new 0 0 238.6 238.6;" xml:space="preserve">
<style type="text/css">
	.st0{fill:none;}
	.st1{stroke:#000000;stroke-width:7.482100e-02;stroke-miterlimit:10;}
	.st2{fill:none;stroke:#000000;stroke-width:3;stroke-miterlimit:10;}
</style>
<g>
	<path class="st0" d="M20,175c0,0,99,55.5,198,0"/>
	<path d="M29.8,175.5l3.5-4.2l1.8,0.8l-0.7,5.4l3.7-4.1l1.9,0.8l-6.4,7.1l-1.3-0.6l0.8-6.5l-4.3,5l-1.3-0.6l0.9-9.5l1.9,0.8
		L29.8,175.5z"/>
	<path d="M46.5,176.7l-0.6,1.7l-4-1.5l-0.7,1.7l3.6,1.4l-0.6,1.6l-3.6-1.4l-0.7,1.8l4.1,1.6l-0.6,1.7l-5.9-2.3l3.3-8.5L46.5,176.7z"
		/>
	<path d="M48.5,187.1l-3.6-1.2l3-8.6l3.2,1.1c0.6,0.2,1,0.4,1.4,0.7s0.6,0.6,0.7,0.9c0.2,0.6,0.2,1.1,0,1.7
		c-0.2,0.7-0.6,1.1-1.1,1.3c-0.2,0.1-0.3,0.1-0.4,0.1c-0.1,0-0.2,0-0.3,0c0.5,0.3,0.8,0.7,1,1.1c0.2,0.5,0.2,1,0,1.5
		c-0.2,0.6-0.6,1.1-1.1,1.4C50.5,187.4,49.6,187.4,48.5,187.1z M47.3,184.8l1.2,0.4c0.5,0.2,0.9,0.2,1.2,0.2s0.5-0.3,0.7-0.7
		s0.1-0.7-0.1-0.9c-0.2-0.2-0.7-0.4-1.3-0.6l-1.1-0.4L47.3,184.8z M48.5,181.3l0.9,0.3c0.5,0.2,0.9,0.2,1.2,0.2
		c0.3,0,0.5-0.2,0.6-0.6c0.1-0.4,0.1-0.7-0.1-0.9c-0.2-0.2-0.5-0.4-1.1-0.6l-0.9-0.3L48.5,181.3z"/>
	<path d="M64.5,183.7c0.6,1,0.7,2.2,0.3,3.5s-1.1,2.3-2.1,2.9c-1,0.6-2.3,0.6-3.9,0.2l-2.8-0.8l2.5-8.7l2.9,0.8
		C62.9,182,63.9,182.7,64.5,183.7z M61.6,188.5c0.6-0.3,1-0.9,1.2-1.8c0.2-0.9,0.2-1.6-0.1-2.2c-0.3-0.6-1-1-1.9-1.3l-1-0.3
		l-1.5,5.3l1.2,0.3C60.3,188.9,61,188.9,61.6,188.5z"/>
	<path d="M73.2,184.8l-0.4,1.8l-4.2-1l-0.5,1.8l3.7,0.9l-0.4,1.7l-3.7-0.9l-0.5,1.8l4.3,1.1l-0.4,1.7l-6.2-1.5l2.2-8.8L73.2,184.8z"
		/>
	<path d="M76.3,187.3c-0.2,0.1-0.3,0.3-0.4,0.6c-0.1,0.3,0,0.5,0.2,0.7c0.2,0.2,0.7,0.5,1.4,0.9s1.3,0.8,1.7,1.3s0.4,1.2,0.3,2
		c-0.2,0.8-0.6,1.4-1.3,1.8c-0.7,0.4-1.5,0.5-2.4,0.3c-1.3-0.3-2.4-1.1-3.3-2.3l1.4-1.2c0.7,1,1.5,1.6,2.2,1.8
		c0.3,0.1,0.6,0.1,0.9-0.1c0.2-0.1,0.4-0.3,0.4-0.6c0.1-0.3,0-0.5-0.2-0.7c-0.2-0.2-0.6-0.5-1.1-0.7c-0.9-0.5-1.6-0.9-1.9-1.4
		c-0.4-0.5-0.5-1.2-0.3-2c0.2-0.8,0.6-1.4,1.3-1.8c0.7-0.3,1.4-0.4,2.3-0.2c0.6,0.1,1.1,0.3,1.6,0.7c0.5,0.3,0.9,0.7,1.3,1.2
		l-1.3,1.2c-0.6-0.7-1.3-1.2-2.1-1.4C76.7,187.1,76.5,187.2,76.3,187.3z"/>
	<path d="M82.1,186.6L84,187l-1.7,8.9l-1.9-0.4L82.1,186.6z"/>
	<path d="M90.6,192.6l1.9,0.3l-0.5,3.2c-1,0.9-2.3,1.2-3.7,0.9c-1.2-0.2-2.2-0.8-2.9-1.8c-0.7-1-1-2.2-0.7-3.5
		c0.2-1.3,0.8-2.4,1.8-3.1c1-0.8,2.1-1,3.3-0.8c1.2,0.2,2.2,0.8,3,1.8l-1.2,1.3c-0.3-0.4-0.6-0.7-0.9-0.9c-0.3-0.2-0.6-0.3-1-0.4
		c-0.7-0.1-1.4,0-2,0.5s-0.9,1.1-1.1,1.9c-0.1,0.8,0,1.6,0.4,2.1c0.4,0.6,0.9,0.9,1.6,1c0.7,0.1,1.2,0.1,1.7-0.1L90.6,192.6z"/>
	<path d="M100.4,189.4l1.9,0.2l-1.1,9l-1.9-0.2l-3.4-6.1l-0.7,5.7l-1.9-0.2l1.1-9l1.8,0.2l3.5,6.3L100.4,189.4z"/>
	<path d="M111.7,198.6c-0.7,0.5-1.5,0.8-2.4,0.7c-0.9-0.1-1.6-0.3-2.2-0.9c-0.6-0.5-0.8-1.2-0.8-2.1c0.1-1,0.7-1.8,2-2.4
		c-0.2-0.4-0.4-0.7-0.5-1s-0.2-0.6-0.1-0.9c0-0.7,0.3-1.3,0.9-1.6c0.5-0.4,1.1-0.5,1.8-0.5s1.3,0.3,1.7,0.7c0.5,0.4,0.7,0.9,0.6,1.6
		c-0.1,0.8-0.7,1.6-1.9,2.3c0.4,0.6,0.7,1.1,1,1.4c0.2-0.4,0.4-0.8,0.5-1.2l1.4,1.2c-0.2,0.5-0.5,1-0.8,1.5l1.1,1.3l-1.3,1.1
		L111.7,198.6z M108.5,197.4c0.2,0.2,0.5,0.3,0.9,0.4c0.4,0,0.8-0.1,1.3-0.5c-0.6-0.7-1-1.3-1.4-1.9c-0.7,0.4-1,0.8-1,1.3
		C108.2,196.9,108.3,197.2,108.5,197.4z M110.2,191.6c-0.2,0-0.3,0-0.5,0.2c-0.2,0.1-0.2,0.3-0.2,0.5c0,0.2,0.1,0.6,0.4,1
		c0.6-0.3,1-0.6,1-0.9c0-0.3,0-0.4-0.2-0.6S110.4,191.6,110.2,191.6z"/>
	<path d="M125.5,191.8c0.8,0.8,1.2,1.9,1.2,3.3s-0.4,2.5-1.2,3.4c-0.8,0.8-2,1.2-3.7,1.2l-2.9,0l0-9.1l3,0
		C123.5,190.6,124.6,191,125.5,191.8z M124,197.2c0.5-0.5,0.7-1.1,0.7-2s-0.2-1.6-0.7-2.1c-0.5-0.5-1.2-0.7-2.2-0.7l-1.1,0l0,5.5
		l1.2,0C122.9,197.9,123.6,197.7,124,197.2z"/>
	<path d="M134.4,190.3l0.1,1.8l-4.3,0.2l0.1,1.9l3.9-0.2l0.1,1.7l-3.9,0.2l0.1,1.9l4.4-0.2l0.1,1.8l-6.3,0.3l-0.4-9.1L134.4,190.3z"
		/>
	<path d="M139.8,195.7l1.7-6l2.1-0.2l-2.7,9.3l-1.6,0.1l-4.2-8.8l2.1-0.2L139.8,195.7z"/>
	<path d="M150.6,188.6l0.2,1.8l-4.3,0.5l0.2,1.9l3.8-0.5l0.2,1.7l-3.8,0.5l0.2,1.9l4.4-0.6l0.2,1.8l-6.3,0.8l-1.2-9L150.6,188.6z"/>
	<path d="M153.8,197.3l-1.5-9l1.9-0.3l1.2,7.2l3.6-0.6l0.3,1.8L153.8,197.3z"/>
	<path d="M167.6,193.4c-0.7,1.1-1.6,1.7-2.9,2c-1.2,0.3-2.4,0.1-3.4-0.6c-1-0.7-1.7-1.7-2-3c-0.3-1.3-0.1-2.5,0.6-3.5
		c0.7-1.1,1.6-1.7,2.9-2c1.2-0.3,2.4-0.1,3.4,0.6c1,0.7,1.7,1.7,2,3C168.4,191.1,168.2,192.3,167.6,193.4z M166.2,190.3
		c-0.2-0.8-0.6-1.4-1.2-1.9c-0.6-0.5-1.3-0.6-2-0.5c-0.7,0.2-1.2,0.6-1.6,1.2c-0.4,0.7-0.5,1.4-0.3,2.2c0.2,0.8,0.6,1.4,1.2,1.9
		c0.6,0.5,1.3,0.6,2,0.4c0.7-0.2,1.2-0.6,1.6-1.2S166.4,191,166.2,190.3z"/>
	<path d="M174.5,184.3c0.7,0.4,1.2,1.1,1.5,2.2c0.3,1.1,0.2,2-0.3,2.6c-0.5,0.7-1.3,1.2-2.5,1.5l-1.1,0.3l0.7,2.4l-1.9,0.5l-2.4-8.8
		l2.9-0.8C172.8,183.9,173.8,184,174.5,184.3z M174.1,188.1c0.2-0.3,0.2-0.7,0-1.2c-0.1-0.5-0.4-0.8-0.7-1c-0.3-0.1-0.8-0.1-1.4,0
		l-1.1,0.3l0.8,3l1.2-0.3C173.6,188.7,173.9,188.5,174.1,188.1z"/>
	<path d="M184.8,183.7l-0.7,5.4l-1.1,0.4l-3.8-4l1.8,5.4l-1.8,0.6l-2.8-8.6l2.5-0.8l3.7,4l0.6-5.4l2.5-0.8l2.8,8.6l-1.8,0.6
		L184.8,183.7z"/>
	<path d="M193.2,177l0.7,1.7l-4,1.6l0.7,1.7l3.6-1.4l0.6,1.6l-3.6,1.4l0.7,1.8l4.1-1.6l0.7,1.7l-5.9,2.3l-3.3-8.5L193.2,177z"/>
	<path d="M200.3,173.9l1.8-0.8l3.7,8.3l-1.8,0.8l-6.1-3.5l2.3,5.2l-1.8,0.8l-3.7-8.3l1.6-0.7l6.2,3.6L200.3,173.9z"/>
	<path d="M207.8,172.2l3.3,6.5l-1.7,0.9l-3.3-6.5l-2.2,1.1l-0.8-1.6l6.1-3.1l0.8,1.6L207.8,172.2z"/>
</g>
<g id="N8D">
	<g>
		<path d="M141.2,160.3h3.8v12h-3.7c-2.1,0-3.6-0.5-4.6-1.6c-1-1.1-1.5-2.6-1.5-4.4c0-1.9,0.5-3.3,1.5-4.4
			C137.8,160.8,139.3,160.3,141.2,160.3z M141,170h1.5v-7.3h-1.3c-1.2,0-2.1,0.3-2.7,1c-0.6,0.6-0.9,1.5-0.9,2.7s0.3,2.1,0.9,2.7
			C139.1,169.7,139.9,170,141,170z"/>
	</g>
	<polygon class="st1" points="163.7,172.1 159.6,169 155.5,171.9 157.2,167.1 153.1,164.1 158.2,164.2 159.8,159.4 161.3,164.3 
		166.3,164.4 162.2,167.2 	"/>
	<polygon class="st1" points="86.3,172.1 82.2,169 78.1,171.9 79.8,167.1 75.7,164.1 80.8,164.2 82.4,159.4 83.9,164.3 88.9,164.4 
		84.8,167.2 	"/>
	<g>
		<path d="M104.4,160.3h2.5v12h-2.5l-5.4-7.5v7.5h-2.5v-12h2.4l5.6,7.8V160.3z"/>
	</g>
	<g>
		<path d="M118.2,161c0.8-0.6,1.7-0.9,2.8-0.9s2.1,0.3,2.8,0.9c0.8,0.6,1.1,1.4,1.1,2.3c0,0.9-0.3,1.7-1,2.4c0.9,0.8,1.4,1.8,1.4,3
			c0,1.1-0.4,1.9-1.2,2.7c-0.8,0.7-1.9,1.1-3.2,1.1c-1.3,0-2.3-0.4-3.2-1.1c-0.8-0.7-1.2-1.6-1.2-2.7c0-1.3,0.5-2.3,1.4-3
			c-0.7-0.7-1-1.5-1-2.4C117.1,162.4,117.4,161.6,118.2,161z M119.8,169.8c0.4,0.3,0.8,0.4,1.2,0.4c0.4,0,0.9-0.1,1.2-0.4
			c0.4-0.3,0.6-0.7,0.6-1.2s-0.2-0.9-0.6-1.2s-0.8-0.4-1.3-0.4c-0.5,0-0.9,0.1-1.3,0.4c-0.4,0.3-0.6,0.7-0.6,1.2
			S119.4,169.6,119.8,169.8z M119.9,164.6c0.3,0.3,0.7,0.4,1.1,0.4s0.8-0.1,1.1-0.4c0.3-0.3,0.5-0.6,0.5-1c0-0.4-0.2-0.7-0.5-1
			c-0.3-0.3-0.7-0.4-1.1-0.4s-0.8,0.1-1.1,0.4c-0.3,0.3-0.5,0.6-0.5,1C119.5,164,119.6,164.3,119.9,164.6z"/>
	</g>
</g>
<g id="Est._2015">
	<rect x="19.3" y="139.5" width="63" height="10"/>
	<g>
		<path d="M99,139.9v1.8h-4.5v1.9h4.1v1.7h-4.1v1.9h4.7v1.8h-6.7v-9.1H99z"/>
		<path d="M102.3,143.4c-0.1,0.1-0.2,0.3-0.2,0.5c0,0.2,0.1,0.4,0.3,0.5s0.6,0.3,1.3,0.4c0.7,0.2,1.2,0.4,1.5,0.7s0.6,0.8,0.6,1.4
			c0,0.6-0.2,1.1-0.7,1.5c-0.5,0.4-1.1,0.6-1.9,0.6c-1.1,0-2.1-0.4-3-1.2l0.9-1.1c0.8,0.7,1.5,1,2.1,1c0.3,0,0.5-0.1,0.7-0.2
			c0.2-0.1,0.2-0.3,0.2-0.5s-0.1-0.4-0.3-0.5s-0.5-0.2-1-0.4c-0.8-0.2-1.4-0.4-1.8-0.8c-0.4-0.3-0.6-0.8-0.6-1.5
			c0-0.7,0.2-1.2,0.7-1.5c0.5-0.4,1.1-0.5,1.8-0.5c0.5,0,0.9,0.1,1.4,0.2c0.5,0.2,0.9,0.4,1.2,0.7l-0.8,1.1
			c-0.6-0.5-1.2-0.7-1.9-0.7C102.7,143.2,102.5,143.3,102.3,143.4z"/>
		<path d="M110,143.4v5.6h-1.6v-5.6h-2V142h5.5v1.4H110z"/>
		<path d="M113.3,148.8c-0.2-0.2-0.3-0.5-0.3-0.8c0-0.3,0.1-0.6,0.3-0.8c0.2-0.2,0.5-0.3,0.8-0.3c0.3,0,0.6,0.1,0.8,0.3
			c0.2,0.2,0.3,0.5,0.3,0.8c0,0.3-0.1,0.6-0.3,0.8c-0.2,0.2-0.5,0.3-0.8,0.3C113.8,149.1,113.5,149,113.3,148.8z"/>
		<path d="M124,143.5c0.2-0.3,0.3-0.6,0.3-0.9s-0.1-0.6-0.3-0.8c-0.2-0.2-0.5-0.3-0.8-0.3c-0.6,0-1.1,0.4-1.6,1.2l-1.6-1
			c0.4-0.7,0.9-1.2,1.4-1.5c0.5-0.3,1.2-0.5,1.9-0.5c0.8,0,1.5,0.2,2.1,0.7s0.9,1.2,0.9,2c0,0.5-0.1,0.9-0.4,1.3
			c-0.2,0.4-0.7,1-1.3,1.6l-1.6,1.7h3.6v1.8h-6.4v-1.5l2.7-2.7C123.4,144.2,123.7,143.8,124,143.5z"/>
		<path d="M131.8,149.1c-1.3,0-2.2-0.4-2.8-1.3c-0.6-0.9-0.9-2-0.9-3.4c0-1.4,0.3-2.6,0.9-3.4c0.6-0.9,1.6-1.3,2.8-1.3
			s2.2,0.4,2.8,1.3c0.6,0.9,0.9,2,0.9,3.4c0,1.4-0.3,2.6-0.9,3.4C134,148.7,133,149.1,131.8,149.1z M130.4,142.2
			c-0.3,0.6-0.4,1.3-0.4,2.2c0,0.9,0.1,1.6,0.4,2.2c0.3,0.6,0.7,0.8,1.3,0.8s1.1-0.3,1.3-0.8c0.3-0.6,0.4-1.3,0.4-2.2
			c0-0.9-0.1-1.6-0.4-2.2c-0.3-0.6-0.7-0.8-1.3-0.8S130.7,141.7,130.4,142.2z"/>
		<path d="M136.6,139.9h3.7v9.1h-2v-7.4h-1.7V139.9z"/>
		<path d="M148.1,139.9v1.8h-3.6v1.5c0.3-0.1,0.6-0.1,0.9-0.1c0.9,0,1.6,0.3,2.3,0.8c0.6,0.5,0.9,1.2,0.9,2.1s-0.3,1.6-1,2.2
			c-0.7,0.6-1.5,0.9-2.4,0.9c-1.2,0-2.3-0.5-3.1-1.4l1.1-1.5c0.1,0.1,0.2,0.2,0.3,0.3c0.1,0.1,0.4,0.3,0.7,0.4
			c0.3,0.2,0.7,0.3,1,0.3s0.7-0.1,0.9-0.3s0.4-0.5,0.4-0.9s-0.1-0.7-0.4-0.9c-0.3-0.2-0.7-0.3-1.1-0.3c-0.5,0-1,0.2-1.6,0.5
			l-0.8-0.9v-4.4H148.1z"/>
	</g>
	<rect x="159.3" y="139.5" width="58" height="10"/>
</g>
<g>
	<path d="M57,51.8l-4.6,26.6H53c8,0,13.7-10.7,13.7-19.8c0-6.7-3.1-12.6-10.6-12.6C40.4,46,30,56.9,30,75.2c0,6.1,1.3,7.1,1.4,8.2
		c-6.7,0-10.3-3-10.3-11.6c0-16,17.8-31.2,33.9-31.2c15.2,0,21.9,9.4,21.9,19.2c0,7.1-3.5,14.5-9.7,19c7.9,1.9,11.1,10.2,11.1,19.6
		c0,15.5-8.6,34.3-19.2,34.3c-5.8,0-11.4-0.7-11.4-8.3c0-2,0.4-4.6,1.3-7.6c1.8,3.7,5.1,4.3,6.5,4.3c5.3,0,9.6-11.9,9.6-22.1
		c0-7.8-2.4-14.8-8.8-14.8c-1.3,0-3.1,0.1-4.8,0.4l-7.9,46H29.5l13.1-76.3L57,51.8z"/>
	<path d="M117,83l-5.5,32.3c-0.2,1-0.3,2.1-0.3,2.9c0,2.1,0.8,3.6,3.8,3.6s7-5.3,10.1-8.4h2.6c-3.5,4.4-12.2,17-18.1,17
		c-5,0-8.3-2.3-9.3-7.2c-2.3,3.9-5.7,7.8-10.4,7.8c-7.3,0-9.5-6.5-9.5-12.1c0-16.3,4.7-35.9,20-35.9c1.8,0,3.7,1,5.1,2.4L106,83H117
		z M90.7,116.4c0,5.7,2.5,6.7,4.4,6.7c1.8,0,3.4-2.1,4.9-4.8c0.1-1,0.2-2,0.5-3.1l4.3-25.2c-1.2-1.3-2.7-1.7-3.7-1.7
		C95.3,88.4,90.7,103.5,90.7,116.4z"/>
	<path d="M156.6,83l-5.5,32.3c-0.2,1-0.3,2.1-0.3,2.9c0,2.1,0.8,3.6,3.8,3.6s7-5.3,10.1-8.4h2.6c-3.5,4.4-12.2,17-18.1,17
		c-5.2,0-8.7-2.5-9.4-8c-3.6,4.2-7.7,8-11,8c-5.9,0-9.6-3.2-9.6-10.4c0-1.4,0.2-3,0.5-4.8l5.5-32.3h11l-5.5,32.3
		c-0.2,1-0.3,2.1-0.3,2.9c0,2.1,0.8,3.6,3.8,3.6c1.6,0,3.5-1.5,5.4-3.4c0.1-1,0.2-2,0.5-3.1l5.5-32.3H156.6z"/>
	<path d="M175.3,123.7c3.7,0,10.2-5.5,12.9-12.5h3.4c-4.4,9.8-11.7,19.4-21.6,19.4c-7.3,0-11.3-6.9-11.3-15.1
		c0-12.1,4.1-33.3,18.1-33.3c6.3,0,9.8,3.2,9.8,9.9c0,11.6-10,18.2-17.3,19.4c-0.2,1.5-0.2,2.9-0.2,4.1
		C169,121.8,172.3,123.7,175.3,123.7z M179.2,87.2c-4.3,0-7.8,10.7-9.4,19.7c7-0.1,12-7.6,12.1-14.3
		C181.9,90.5,181.5,87.2,179.2,87.2z"/>
	<path d="M203.9,83l-0.8,4.8c2.8-2.7,5.8-4.8,9-4.8c3.4,0,5.5,2.5,5.5,6.1c0,3.3-2,7.4-5.7,7.4c-4.3,0-2.1-6.3-4.4-6.3
		c-2.3,0-3.5,1-5.3,3l-6.3,37.2h-11l8.1-47.5H203.9z"/>
</g>
<g>
	<path d="M94.1,50.5c-1,0-1.8,0.2-2.4,0.6c-0.6,0.4-0.9,1-0.9,1.8s0.3,1.4,0.9,1.8c0.6,0.4,1.9,0.9,4,1.4c2,0.5,3.5,1.2,4.6,2.1
		c1,0.9,1.5,2.2,1.5,3.9c0,1.7-0.6,3.1-1.9,4.2c-1.3,1.1-3,1.6-5.1,1.6c-3.1,0-5.8-1.1-8.2-3.2l2.1-2.5c2,1.7,4.1,2.6,6.2,2.6
		c1.1,0,1.9-0.2,2.6-0.7c0.6-0.5,0.9-1.1,0.9-1.8c0-0.8-0.3-1.4-0.9-1.8c-0.6-0.4-1.6-0.8-3.1-1.2c-1.4-0.3-2.5-0.7-3.3-1
		c-0.8-0.3-1.4-0.7-2-1.1c-1.2-0.9-1.8-2.2-1.8-4.1c0-1.8,0.7-3.2,2-4.2c1.3-1,3-1.5,4.9-1.5c1.3,0,2.5,0.2,3.8,0.6
		c1.2,0.4,2.3,1,3.2,1.7l-1.8,2.5c-0.6-0.5-1.4-1-2.4-1.3C96,50.7,95,50.5,94.1,50.5z"/>
	<path d="M117.5,50.9v16.7h-3.3V50.9h-6v-3h15.3v3H117.5z"/>
	<path d="M145.2,47.9V51h-10.5v5.2h9.5v3h-9.5v5.3h10.9v3.1h-14.2V47.9H145.2z"/>
	<path d="M157.3,51v5.4h8.7v3.1h-8.7v8.1H154V47.9h13.2l0,3.1H157.3z"/>
	<path d="M176.8,63.1l-2,4.5h-3.6l8.7-19.7h3.6l8.7,19.7h-3.6l-2-4.5H176.8z M185.3,60.1l-3.6-8.1l-3.6,8.1H185.3z"/>
	<path d="M214,47.9h3.3v19.7h-3.6l-11.2-14.4v14.4h-3.3V47.9h3.3L214,62.6V47.9z"/>
</g>
<line class="st2" x1="86.3" y1="73" x2="217.3" y2="73"/>
<g>
</g>
<g>
</g>
<g>
</g>
<g>
</g>
<g>
</g>
<g>
</g>
<g>
</g>
<g>
</g>
<g>
</g>
<g>
</g>
<g>
</g>
<g>
</g>
<g>
</g>
<g>
</g>
<g>
</g>
</svg>
